HIERARCHY
ROOT Hips
{
	OFFSET	0.00	0.00	0.00
	CHANNELS 6 Xposition Yposition Zposition Zrotation Xrotation Yrotation
	JOINT LeftUpLeg
	{
		OFFSET	 0.126116	-0.014019	-0.065224
		CHANNELS 3 Zrotation Xrotation Yrotation
		JOINT LeftLeg
		{
			OFFSET	 0.000000	 0.000000	 0.569914
			CHANNELS 3 Zrotation Xrotation Yrotation
			JOINT LeftFoot
			{
				OFFSET	 0.000000	 0.000000	 0.544423
				CHANNELS 3 Zrotation Xrotation Yrotation
				JOINT LeftToeBase
				{
					OFFSET	 0.000000	 0.000000	 0.207117
					CHANNELS 3 Zrotation Xrotation Yrotation
					End Site
					{
						OFFSET	 0.000000	 0.000000	 0.207117
					}
				}
			}
		}
	}
	JOINT RightUpLeg
	{
		OFFSET	-0.124023	-0.008373	-0.065224
		CHANNELS 3 Zrotation Xrotation Yrotation
		JOINT RightLeg
		{
			OFFSET	 0.000000	 0.000000	 0.570047
			CHANNELS 3 Zrotation Xrotation Yrotation
			JOINT RightFoot
			{
				OFFSET	 0.000000	 0.000000	 0.544354
				CHANNELS 3 Zrotation Xrotation Yrotation
				JOINT RightToeBase
				{
					OFFSET	 0.000000	 0.000000	 0.207540
					CHANNELS 3 Zrotation Xrotation Yrotation
					End Site
					{
						OFFSET	 0.000000	 0.000000	 0.207540
					}
				}
			}
		}
	}
	JOINT Spine
	{
		OFFSET	 0.000184	-0.007763	 0.117403
		CHANNELS 3 Zrotation Xrotation Yrotation
		JOINT Spine1
		{
			OFFSET	 0.000000	 0.000000	 0.137269
			CHANNELS 3 Zrotation Xrotation Yrotation
			JOINT Spine2
			{
				OFFSET	 0.000000	 0.000000	 0.156879
				CHANNELS 3 Zrotation Xrotation Yrotation
				JOINT LeftShoulder
				{
					OFFSET	 0.080501	-0.002496	 0.160144
					CHANNELS 3 Zrotation Xrotation Yrotation
					JOINT LeftArm
					{
						OFFSET	 0.000000	 0.000000	 0.164363
						CHANNELS 3 Zrotation Xrotation Yrotation
						JOINT LeftForeArm
						{
							OFFSET	 0.000000	 0.000000	 0.364576
							CHANNELS 3 Zrotation Xrotation Yrotation
							JOINT LeftHand
							{
								OFFSET	 0.000000	 0.000000	 0.360812
								CHANNELS 3 Zrotation Xrotation Yrotation
								JOINT LeftHandIndex1
								{
									OFFSET	 0.000000	 0.000000	 0.086006
									CHANNELS 3 Zrotation Xrotation Yrotation
									JOINT LeftHandIndex2
									{
										OFFSET	 0.000000	 0.000000	 0.047236
										CHANNELS 3 Zrotation Xrotation Yrotation
										JOINT LeftHandIndex3
										{
											OFFSET	-0.004284	-0.000551	 0.038166
											CHANNELS 3 Zrotation Xrotation Yrotation
											End Site
											{
												OFFSET	-0.004284	-0.000551	 0.038166
											}
										}
									}
								}
							}
						}
					}
				}
				JOINT Neck
				{
					OFFSET	 0.000000	 0.000000	 0.176489
					CHANNELS 3 Zrotation Xrotation Yrotation
					JOINT Head
					{
						OFFSET	 0.000000	-0.001747	 0.077940
						CHANNELS 3 Zrotation Xrotation Yrotation
						End Site
						{
							OFFSET	 0.000000	-0.001747	 0.077940
						}
					}
				}
				JOINT RightShoulder
				{
					OFFSET	-0.080363	 0.000306	 0.159706
					CHANNELS 3 Zrotation Xrotation Yrotation
					JOINT RightArm
					{
						OFFSET	 0.000000	 0.000000	 0.164196
						CHANNELS 3 Zrotation Xrotation Yrotation
						JOINT RightForeArm
						{
							OFFSET	 0.000000	 0.000000	 0.365611
							CHANNELS 3 Zrotation Xrotation Yrotation
							JOINT RightHand
							{
								OFFSET	 0.000000	 0.000000	 0.360648
								CHANNELS 3 Zrotation Xrotation Yrotation
								JOINT RightHandIndex1
								{
									OFFSET	 0.000000	 0.000000	 0.069977
									CHANNELS 3 Zrotation Xrotation Yrotation
									JOINT RightHandIndex2
									{
										OFFSET	 0.000000	 0.000000	 0.052305
										CHANNELS 3 Zrotation Xrotation Yrotation
										JOINT RightHandIndex3
										{
											OFFSET	 0.009002	-0.000782	 0.042196
											CHANNELS 3 Zrotation Xrotation Yrotation
											End Site
											{
												OFFSET	 0.009002	-0.000782	 0.042196
											}
										}
									}
								}
							}
						}
					}
				}
			}
		}
	}
}
MOTION
Frames:    5
Frame Time: 0.03333334
-0.030327	 0.285676	 0.989755	 3.602040	 32.652010	-8.657656	 80.368130	-74.785640	-111.529300	 7.730200	-74.416020	 7.851051	 75.242840	 69.623240	-90.449620	-2.385832	 28.452790	-0.000001	 91.487150	-86.722370	-81.879880	-22.248650	-78.832980	-16.796970	-36.408570	 74.704060	 66.526050	 2.384659	 28.388700	-0.000001	 8.180584	 14.899270	 0.292145	-1.434355	 20.158980	 0.216543	-6.724282	 0.186281	 4.744099	-99.121880	 68.196660	 156.923400	-0.990999	-12.827010	-44.423770	 4.658528	-1.543530	-7.242361	-33.677930	-16.185540	-21.068580	-2.027600	 6.559038	 9.033609	-5.188889	 0.308190	 3.541030	-5.234859	 0.342567	 0.430617	 0.257226	 17.066410	-5.759538	-5.863323	-26.106450	-3.589392	 97.424280	 64.618390	-159.352200	-11.495220	 6.003841	 66.765790	-18.887340	-4.552123	 21.141130	 18.037150	-15.747960	 16.766880	 1.803333	 3.979147	-15.098590	 4.898592	 3.004813	-9.310344	 5.224449	 0.395017	 2.014677
-0.027279	 0.282261	 1.011007	 3.255165	 31.004100	-7.828316	 69.169620	-72.983080	-123.486500	 6.194582	-71.669580	 6.278419	 73.434800	 69.883760	-87.813090	-2.385832	 28.452790	-0.000001	 16.750980	-86.116470	-155.266700	-19.344490	-76.017800	-13.793830	-36.473080	 74.635120	 65.807460	 2.384659	 28.388700	-0.000001	-0.017012	 14.447170	 0.114590	-1.032118	 20.599440	-0.263561	-6.793364	-1.258003	 4.194981	-98.504420	 68.755460	 157.999800	-0.174877	-9.480124	-45.647090	 9.366321	-2.777219	-9.305099	-34.887900	-16.457830	-22.182220	-2.027600	 6.559038	 9.033609	-5.188889	 0.308190	 3.541030	-5.234859	 0.342567	 0.430617	-0.493589	 11.214650	-4.109440	-6.104360	-20.279920	-3.772699	 97.086360	 64.124300	-160.680700	-12.991560	 5.921033	 63.863850	-21.241650	-7.965975	 28.714000	 18.180890	-15.364020	 18.535590	 1.803333	 3.979147	-15.098590	 4.898592	 3.004813	-9.310344	 5.224449	 0.395017	 2.014677
-0.023559	 0.277405	 1.034337	 2.914607	 29.105880	-6.901359	 59.363080	-70.320010	-134.192600	 5.119540	-68.577740	 5.155754	 71.385120	 70.206150	-84.839200	-2.385833	 28.452760	 0.000004	-9.340258	-81.859970	-179.858900	-17.369840	-72.746300	-11.688990	-36.151520	 74.642520	 64.598330	 2.384659	 28.388700	-0.000001	-8.242290	 13.856630	-0.052236	-0.669353	 20.836080	-0.624336	-6.910424	-2.908344	 3.534477	-97.364860	 70.345640	 159.195800	 1.056078	-4.975319	-47.004210	 13.835500	-4.197364	-11.080120	-36.202230	-16.742920	-24.069890	-2.027600	 6.559038	 9.033609	-5.188889	 0.308190	 3.541030	-5.234859	 0.342567	 0.430617	-0.994471	 3.735477	-2.523633	-6.323022	-12.971370	-3.944975	 96.633890	 64.336460	-161.681400	-14.867490	 7.200650	 60.981450	-23.422520	-12.237410	 35.868190	 17.984850	-14.750070	 19.704650	 1.803333	 3.979147	-15.098590	 4.898592	 3.004813	-9.310344	 5.224449	 0.395017	 2.014677
-0.019159	 0.270562	 1.061158	 2.540840	 26.711440	-5.527486	 50.582420	-66.756030	-144.274200	 4.821146	-64.977100	 4.748435	 68.622850	 70.686090	-81.138350	-2.385833	 28.452750	 0.000004	-19.195550	-75.920850	 172.051500	-15.777040	-68.692600	-9.919036	-35.979410	 74.847480	 63.342310	 2.384659	 28.388700	-0.000001	-17.353580	 13.308780	-0.367526	-0.182212	 21.382310	-1.279045	-7.013966	-5.186981	 2.908802	-94.721710	 74.551150	 160.423600	 2.723568	 2.088332	-49.887070	 18.759910	-5.981853	-12.797210	-37.924820	-17.284030	-26.380630	-2.027600	 6.559038	 9.033609	-5.188889	 0.308190	 3.541030	-5.234859	 0.342567	 0.430617	-1.397821	-6.219612	-2.235141	-6.255660	-3.420441	-2.886406	 95.275590	 66.931470	-163.090100	-17.264930	 11.332810	 60.200150	-25.471890	-17.624170	 42.703990	 18.331650	-15.357220	 20.979610	 1.803333	 3.979147	-15.098590	 4.898592	 3.004813	-9.310344	 5.224449	 0.395017	 2.014677
-0.015836	 0.261821	 1.085689	 2.523155	 24.560630	-4.498838	 44.358390	-63.051140	-151.499600	 4.792339	-61.447160	 4.599128	 65.051150	 71.145390	-76.790200	-2.385833	 28.452750	 0.000004	-22.922660	-70.316380	 170.042400	-12.868640	-64.917790	-7.001740	-36.151800	 75.096460	 61.651780	 2.384659	 28.388700	-0.000001	-24.014140	 12.535630	-0.613017	 0.218585	 21.501900	-1.798805	-7.092547	-7.189756	 2.303531	-93.248140	 76.542220	 161.812200	 4.712733	 6.618990	-52.102650	 22.592490	-7.474802	-13.940580	-38.217250	-17.468650	-28.312640	-2.027600	 6.559038	 9.033609	-5.188889	 0.308190	 3.541030	-5.234859	 0.342567	 0.430617	-1.667209	-13.450820	-2.088717	-6.295590	 3.455121	-2.142545	 94.189670	 68.984730	-164.315400	-19.587360	 14.692960	 59.119190	-25.973190	-22.339010	 48.680520	 18.465260	-15.877170	 21.581510	 1.803333	 3.979147	-15.098590	 4.898592	 3.004813	-9.310344	 5.224449	 0.395017	 2.014677
